<svg
	xmlns="http://www.w3.org/2000/svg" xml:space="preserve" viewBox="0 0 1600 1600">
	<defs>
		<clipPath id="a" clipPathUnits="userSpaceOnUse">
			<path d="M58 310C26 351 6 404 6 462c0 133 104 242 233 242 21 0 41-3 60-8a279 279 0 0 0 263 194c145 0 265-116 277-264 32 17 69 27 108 27 137 0 247-115 247-257 0-30-5-59-15-86H58"/>
		</clipPath>
	</defs>
	<path fill="#3C3A41" d="M77 1187c-43-55-69-126-69-203 0-178 139-323 311-323 28 0 55 5 80 12a372 372 0 0 1 350-260c194 0 353 155 369 352 44-22 93-35 145-35 182 0 329 153 329 341 0 41-7 80-20 116H77"/>
	<path fill="#f48120" d="M268 693c-10 0-18-9-18-19V557h-69c-9 0-16-5-18-13l-41-155H80a19 19 0 0 1-18-20c0-3 6-54 19-109 9-39 20-71 32-93v-2c0-11-8-19-18-19s-19 8-19 19a13 13 0 1 1-26 0c0-25 20-46 45-46 12 0 23 5 32 14a44 44 0 0 1 63 0 44 44 0 0 1 64 0 44 44 0 0 1 64 0 44 44 0 0 1 63 0 44 44 0 0 1 64 0 44 44 0 0 1 64 0 44 44 0 0 1 64 0 44 44 0 0 1 63-1 44 44 0 0 1 63 1 44 44 0 0 1 64 0 44 44 0 0 1 64 0 44 44 0 0 1 63 0 44 44 0 0 1 64 0 44 44 0 0 1 64 0 44 44 0 0 1 60-4l4 3a44 44 0 0 1 63 1c8-9 20-14 32-14 25 0 45 21 45 46a13 13 0 1 1-27 0c0-11-8-19-18-19s-18 8-18 19c0 8-6 14-13 14h-1c-7 0-13-6-13-14 0-11-8-19-19-19-9 0-16 7-18 16l67 187 15 40a19 19 0 0 1-17 26H987c-4 0-9-2-12-5l-2-2v54c0 7-6 13-14 13h-9v82c0 7-6 13-13 13H819c-7 0-13-6-13-13v-82h-10v82c0 7-6 13-13 13H665c-8 0-13-6-13-13v-82h-47c-7 0-13-6-13-13v-72h-69l-40 154c-2 8-10 13-18 13h-57v117c0 10-8 19-18 19zm19-37h84v-24h-84zm0-61h84v-38h-84zm391-52h91v-65h-91Zm154 0h91v-65h-91Zm-637-23h256l34-130v-1H161Zm423-71h92v-66h-92v7zm118 0h91v-66h-91zm119 0h91v-66h-91zm139-71h139l-6-16-13-37H106l-4 27h407l5 1h445c4 0 9 1 12 4zm-884-75h996l-54-151-1-6a20 20 0 0 0-4 0c-9 1-16 10-16 19 0 8-5 14-13 14s-14-6-14-14c0-11-8-19-18-19s-18 8-18 19c0 8-6 14-14 14-7 0-13-6-13-14 0-11-9-19-19-19s-18 8-18 19c0 8-6 14-13 14h-1c-7 0-13-6-13-14 0-11-8-19-18-19s-19 8-19 19c0 8-6 14-13 14h-1c-7 0-13-6-13-14 0-11-8-19-18-19s-18 8-18 19c0 8-6 14-14 14s-14-6-14-14c0-11-8-19-18-19s-18 8-18 19c0 8-6 14-13 14h-1c-7 0-13-6-13-14 0-11-9-19-19-19-9 0-17 8-18 19 0 8-6 14-13 14s-13-6-13-14c-1-11-9-19-19-19s-18 8-18 19c0 8-6 14-13 14h-1c-7 0-13-6-13-14 0-11-8-19-18-19s-19 8-19 19c0 8-5 14-13 14s-14-6-14-14c0-11-8-19-18-19s-18 8-18 19c0 8-6 14-14 14s-13-6-13-14c0-11-9-19-19-19s-18 8-18 19c0 8-6 14-13 14h-1c-7 0-13-6-13-14 0-11-8-19-18-19-11 0-19 8-19 19 0 8-6 14-13 14h-1c-7 0-13-6-13-14 0-11-8-19-18-19s-18 8-18 19c0 8-6 14-14 14s-14-6-14-14c0-11-8-19-18-19s-18 8-18 19c0 8-6 14-13 14h-1c-7 0-13-6-13-14 0-4-2-8-4-11l-4 2c-18 8-37 50-52 112l-7 35z" clip-path="url(#a)" transform="matrix(1.333 0 0 -1.333 0 1600)"/>
</svg>
