<svg xmlns="http://www.w3.org/2000/svg" viewBox="0 0 1600 1600">
  <path fill="#3c3a41" d="m138 612 807-436 509 288 17 524-810 414-570-277Z"/>
  <path fill="#f48120" stroke="#3c3a41" stroke-width="25" d="m1029 125 449 244c52 27 84 79 84 134v440a169 156 0 0 1-84 135l-738 398a168 156 0 0 1-169 0l-450-242a168 155 0 0 1-83-134V657c0-27 8-53 21-75l1-1 1-2c14-23 35-42 60-56l740-399a167 154 0 0 1 168 0zm-96 113L250 606l392 210a26 24 0 0 0 26 0l681-365-392-213a24 22 0 0 0-24 0zm-740 882 391 210V937a172 159 0 0 1-13-7L181 722v378c0 8 5 16 12 20zm819 56 145-78V707l-145 77zM740 930l-13 7v393l143-77V861Zm560 91 106-57a25 23 0 0 0 13-20V566l-119 64z"/>
</svg>
